<svg version="1.1" preserveAspectRatio="none" xmlns="http://www.w3.org/2000/svg" width="500" height="500" viewBox="0 0 500 500"><rect width="100%" height="100%" fill="#F5F1EE" fill-opacity="1"/><svg viewBox="-64.2426 -49.4348 380.3404 225.6688" width="333" height="197.58014241979026" x="83.5px" y="151.2099px" xmlns="http://www.w3.org/2000/svg" xmlns:xlink="http://www.w3.org/1999/xlink" preserveAspectRatio="none"><defs></defs><style>.companyName {fill:#9D5D35;fill-opacity:1;}.icon1 {fill:#D6C4B0;fill-opacity:1;}.icon2 {fill:#5D949E;fill-opacity:1;}.icon3 {fill:#958868;fill-opacity:1;}.icon3-str {stroke:#958868;stroke-opacity:1;}</style><g opacity="1" transform="rotate(0 49.8595 -49.4348)">
<svg width="152.1361" height="175.6688" x="49.8595" y="-49.4348" version="1.1" preserveAspectRatio="none" viewBox="17.522998809814453 12.5 64.9530029296875 75">
  <g transform="matrix(1 0 0 1 0 0)" class="icon1"><g><path d="M82.474,31.249L49.999,12.5L17.526,31.248l-0.003,0.002v37.501L49.999,87.5L50,87.499l32.476-18.748V31.25L82.474,31.249z    M79.654,67.121L50,84.24V72.259L50,72.26L30.722,61.131v-22.26l0.002-0.002l9.721,5.612h0.001L50,38.965l9.555,5.517h0.001   l0.001,0.001v11.035L50,61.034v11.225l19.278-11.128v-22.26l-0.002-0.001l-0.001-0.001L50,27.74L30.724,38.869l-10.376-5.991   l29.651-17.12l29.652,17.12l0.003,0.002V67.121z"></path><polygon points="40.443,44.483 40.443,55.518 50,61.035 50,61.034 50,50 40.444,44.482  "></polygon></g></g>
</svg>
</g><g opacity="1" transform="rotate(0 -64.2426 152.234)">
<svg width="380.3404" height="24" x="-64.2426" y="152.234" version="1.1" preserveAspectRatio="none" viewBox="1.6016 -26.8359 553.4179 34.921800000000005">
  <g transform="matrix(1 0 0 1 0 0)" class="companyName"><path id="id-D6z1nYkh21" d="M1.60-24.65L1.60-26.84L15.23-26.84L15.23-24.65L9.65-24.65L9.65-14.20L25.61-24.65L22.48-24.65L22.48-26.84L35.72-26.84L35.72-24.65L29.36-24.65L15.12-15.31L15.27-15.35L31.29-2.21L36.84-2.21L36.84 0L23.20 0L23.20-2.21L27.79-2.21L13.28-14.12L9.65-11.76L9.65-2.21L15.23-2.21L15.23 0L1.60 0L1.60-2.21L7.21-2.21L7.21-24.65L1.60-24.65Z M40.49-10.23L57.66-10.23Q57.56-11.56 57.05-12.75Q56.54-13.95 55.53-14.85Q54.51-15.76 52.97-16.30Q51.43-16.84 49.26-16.84L49.26-16.84Q47.23-16.84 45.66-16.30Q44.10-15.76 43.01-14.85Q41.91-13.95 41.29-12.75Q40.66-11.56 40.49-10.23L40.49-10.23ZM49.22 0.49L49.22 0.49Q46.66 0.49 44.58-0.19Q42.50-0.86 41.04-2.12Q39.57-3.38 38.77-5.18Q37.97-6.97 37.97-9.20L37.97-9.20Q37.97-11.37 38.81-13.17Q39.65-14.98 41.15-16.28Q42.66-17.58 44.73-18.29Q46.80-19.00 49.26-19.00L49.26-19.00Q51.82-19.00 53.85-18.28Q55.88-17.56 57.29-16.20Q58.69-14.84 59.43-12.91Q60.18-10.98 60.18-8.55L60.18-8.55L60.18-8.13L40.49-8.13Q40.63-6.64 41.26-5.45Q41.89-4.26 43.01-3.42Q44.12-2.58 45.67-2.13Q47.23-1.68 49.22-1.68L49.22-1.68Q51.13-1.68 52.55-1.99Q53.96-2.30 54.95-2.83Q55.94-3.36 56.55-4.02Q57.17-4.69 57.50-5.39L57.50-5.39L59.94-5.39Q58.79-2.42 56.03-0.97Q53.26 0.49 49.22 0.49Z M66.45-10.23L83.61-10.23Q83.52-11.56 83.01-12.75Q82.50-13.95 81.48-14.85Q80.47-15.76 78.93-16.30Q77.38-16.84 75.21-16.84L75.21-16.84Q73.18-16.84 71.62-16.30Q70.06-15.76 68.96-14.85Q67.87-13.95 67.25-12.75Q66.62-11.56 66.45-10.23L66.45-10.23ZM75.18 0.49L75.18 0.49Q72.62 0.49 70.54-0.19Q68.46-0.86 66.99-2.12Q65.53-3.38 64.73-5.18Q63.93-6.97 63.93-9.20L63.93-9.20Q63.93-11.37 64.77-13.17Q65.61-14.98 67.11-16.28Q68.61-17.58 70.68-18.29Q72.75-19.00 75.21-19.00L75.21-19.00Q77.77-19.00 79.80-18.28Q81.84-17.56 83.24-16.20Q84.65-14.84 85.39-12.91Q86.13-10.98 86.13-8.55L86.13-8.55L86.13-8.13L66.45-8.13Q66.58-6.64 67.22-5.45Q67.85-4.26 68.96-3.42Q70.08-2.58 71.63-2.13Q73.18-1.68 75.18-1.68L75.18-1.68Q77.09-1.68 78.51-1.99Q79.92-2.30 80.91-2.83Q81.89-3.36 82.51-4.02Q83.13-4.69 83.46-5.39L83.46-5.39L85.90-5.39Q84.75-2.42 81.98-0.97Q79.22 0.49 75.18 0.49Z M88.50-16.41L88.50-18.59L95.33-18.59L95.33-15.88Q96.25-16.64 97.25-17.25Q98.24-17.85 99.38-18.27Q100.53-18.69 101.83-18.91Q103.13-19.12 104.65-19.12L104.65-19.12Q106.70-19.12 108.61-18.54Q110.53-17.97 112.01-16.77Q113.50-15.57 114.39-13.70Q115.29-11.84 115.29-9.28L115.29-9.28Q115.29-6.72 114.34-4.87Q113.38-3.03 111.78-1.83Q110.18-0.63 108.09-0.05Q106.00 0.53 103.73 0.53L103.73 0.53Q102.42 0.53 101.25 0.35Q100.08 0.18 99.03-0.13Q97.99-0.43 97.06-0.83Q96.13-1.23 95.33-1.68L95.33-1.68L95.33 5.49L99.73 5.49L99.73 7.68L88.50 7.68L88.50 5.49L92.89 5.49L92.89-16.41L88.50-16.41ZM95.33-13.40L95.33-3.85Q96.78-2.87 98.86-2.22Q100.94-1.56 103.69-1.56L103.69-1.56Q105.70-1.56 107.39-2.06Q109.08-2.56 110.30-3.54Q111.52-4.53 112.21-5.97Q112.89-7.40 112.89-9.28L112.89-9.28Q112.89-13.09 110.66-15.06Q108.44-17.03 104.08-17.03L104.08-17.03Q102.64-17.03 101.36-16.71Q100.08-16.39 98.97-15.86Q97.87-15.33 96.96-14.69Q96.05-14.04 95.33-13.40L95.33-13.40Z M133.85-24.65L133.85-26.84L153.93-26.84Q157.05-26.84 159.27-26.30Q161.48-25.76 162.89-24.73Q164.30-23.69 164.95-22.15Q165.61-20.61 165.61-18.59L165.61-18.59Q165.61-16.58 164.95-15.04Q164.30-13.50 162.89-12.44Q161.48-11.39 159.27-10.85Q157.05-10.31 153.93-10.31L153.93-10.31L141.89-10.31L141.89-2.21L147.48-2.21L147.48 0L133.85 0L133.85-2.21L139.45-2.21L139.45-24.65L133.85-24.65ZM162.93-18.59L162.93-18.59Q162.93-20.51 162.32-21.68Q161.72-22.85 160.43-23.49Q159.14-24.12 157.14-24.34Q155.14-24.55 152.36-24.55L152.36-24.55L141.89-24.55L141.89-12.60L152.36-12.60Q153.44-12.60 154.64-12.59Q155.84-12.58 157.02-12.71Q158.20-12.83 159.27-13.15Q160.33-13.48 161.15-14.14Q161.97-14.80 162.45-15.88Q162.93-16.95 162.93-18.59Z M197.01-2.21L197.01 0L190.18 0L190.18-3.52Q189.26-2.64 188.13-1.88Q186.99-1.13 185.69-0.57Q184.39 0 182.95 0.32Q181.50 0.64 179.98 0.64L179.98 0.64Q178.14 0.64 176.79 0.19Q175.43-0.27 174.53-1.11Q173.63-1.95 173.18-3.15Q172.73-4.36 172.73-5.84L172.73-5.84L172.73-16.41L168.34-16.41L168.34-18.59L175.18-18.59L175.18-6.56Q175.18-5.08 175.56-4.11Q175.94-3.14 176.64-2.58Q177.34-2.01 178.35-1.79Q179.36-1.56 180.63-1.56L180.63-1.56Q182.07-1.56 183.48-1.95Q184.88-2.34 186.13-2.94Q187.38-3.54 188.42-4.25Q189.45-4.96 190.18-5.61L190.18-5.61L190.18-16.41L185.78-16.41L185.78-18.59L192.62-18.59L192.62-2.21L197.01-2.21Z M202.17 0L199.98 0L199.98-6.84L202.17-6.84L202.17-5.64Q202.17-4.57 202.90-3.80Q203.63-3.03 204.79-2.53Q205.94-2.03 207.33-1.80Q208.73-1.56 210.06-1.56L210.06-1.56Q211.62-1.56 212.93-1.73Q214.24-1.89 215.20-2.29Q216.15-2.68 216.68-3.31Q217.21-3.95 217.21-4.88L217.21-4.88Q217.21-5.76 216.73-6.38Q216.25-6.99 215.44-7.40Q214.63-7.81 213.54-8.09Q212.46-8.36 211.24-8.56Q210.02-8.77 208.73-8.96Q207.44-9.14 206.22-9.40Q205-9.67 203.92-10.04Q202.83-10.41 202.02-10.99Q201.21-11.56 200.73-12.38Q200.25-13.20 200.25-14.36L200.25-14.36Q200.25-15.84 201.00-16.79Q201.74-17.73 202.93-18.28Q204.12-18.83 205.63-19.03Q207.15-19.24 208.69-19.24L208.69-19.24Q210.94-19.24 212.81-18.73Q214.69-18.22 215.98-17.40L215.98-17.40L215.98-18.59L218.16-18.59L218.16-12.32L215.98-12.32L215.98-13.77Q215.98-14.39 215.64-14.89Q215.31-15.39 214.75-15.77Q214.18-16.15 213.46-16.42Q212.73-16.68 211.94-16.85Q211.15-17.01 210.36-17.09Q209.57-17.17 208.89-17.17L208.89-17.17Q205.80-17.17 204.23-16.56Q202.66-15.96 202.66-14.36L202.66-14.36Q202.66-13.59 203.13-13.08Q203.61-12.56 204.42-12.20Q205.23-11.84 206.32-11.59Q207.40-11.35 208.62-11.14Q209.84-10.94 211.13-10.73Q212.42-10.53 213.64-10.22Q214.86-9.92 215.95-9.49Q217.03-9.06 217.84-8.43Q218.65-7.79 219.13-6.89Q219.61-6.00 219.61-4.77L219.61-4.77Q219.61-3.69 219.20-2.89Q218.79-2.09 218.11-1.49Q217.42-0.90 216.53-0.51Q215.64-0.12 214.67 0.11Q213.69 0.33 212.70 0.43Q211.70 0.53 210.82 0.53L210.82 0.53Q207.89 0.53 205.73-0.10Q203.57-0.72 202.17-1.72L202.17-1.72L202.17 0Z M222.21-24.65L222.21-26.84L229.04-26.84L229.04-15.08Q229.96-15.96 231.09-16.71Q232.23-17.46 233.54-18.03Q234.84-18.59 236.29-18.92Q237.73-19.24 239.26-19.24L239.26-19.24Q241.07-19.24 242.43-18.78Q243.79-18.32 244.69-17.48Q245.59-16.64 246.04-15.44Q246.48-14.24 246.48-12.75L246.48-12.75L246.48-2.21L250.90-2.21L250.90 0L239.65 0L239.65-2.21L244.04-2.21L244.04-12.03Q244.04-13.52 243.66-14.48Q243.28-15.45 242.58-16.02Q241.88-16.58 240.87-16.81Q239.86-17.03 238.61-17.03L238.61-17.03Q237.15-17.03 235.74-16.64Q234.34-16.25 233.10-15.66Q231.86-15.08 230.81-14.37Q229.77-13.65 229.04-13.01L229.04-13.01L229.04-2.21L233.46-2.21L233.46 0L222.21 0L222.21-2.21L226.60-2.21L226.60-24.65L222.21-24.65Z M252.44-16.41L252.44-18.59L259.28-18.59L259.28-2.21L263.69-2.21L263.69 0L252.44 0L252.44-2.21L256.84-2.21L256.84-16.41L252.44-16.41ZM255.61-23.81L255.61-23.81Q255.61-24.26 255.77-24.66Q255.94-25.06 256.23-25.35Q256.52-25.64 256.91-25.82Q257.30-26.00 257.75-26.00L257.75-26.00Q258.20-26.00 258.60-25.82Q259.00-25.64 259.31-25.35Q259.61-25.06 259.79-24.66Q259.96-24.26 259.96-23.81L259.96-23.81Q259.96-23.36 259.79-22.96Q259.61-22.56 259.31-22.27Q259.00-21.97 258.60-21.81Q258.20-21.64 257.75-21.64L257.75-21.64Q257.30-21.64 256.91-21.81Q256.52-21.97 256.23-22.27Q255.94-22.56 255.77-22.96Q255.61-23.36 255.61-23.81Z M265.23-16.41L265.23-18.59L272.07-18.59L272.07-15.08Q272.99-15.96 274.12-16.71Q275.25-17.46 276.56-18.03Q277.87-18.59 279.32-18.92Q280.76-19.24 282.29-19.24L282.29-19.24Q284.10-19.24 285.46-18.78Q286.82-18.32 287.71-17.48Q288.61-16.64 289.06-15.44Q289.51-14.24 289.51-12.75L289.51-12.75L289.51-2.21L293.93-2.21L293.93 0L282.68 0L282.68-2.21L287.07-2.21L287.07-12.03Q287.07-13.52 286.69-14.48Q286.31-15.45 285.61-16.02Q284.90-16.58 283.90-16.81Q282.89-17.03 281.64-17.03L281.64-17.03Q280.18-17.03 278.77-16.64Q277.36-16.25 276.12-15.66Q274.88-15.08 273.84-14.37Q272.79-13.65 272.07-13.01L272.07-13.01L272.07-2.21L276.48-2.21L276.48 0L265.23 0L265.23-2.21L269.63-2.21L269.63-16.41L265.23-16.41Z M307.07 8.09L307.07 8.09Q304.28 8.09 301.92 7.54Q299.57 6.99 297.79 6.11L297.79 6.11L298.91 3.96Q299.26 4.18 299.88 4.50Q300.51 4.82 301.48 5.15Q302.46 5.47 303.84 5.69Q305.21 5.92 307.07 5.92L307.07 5.92Q309.06 5.92 310.53 5.63Q311.99 5.33 313.04 4.81Q314.08 4.30 314.74 3.60Q315.39 2.91 315.77 2.11Q316.15 1.31 316.29 0.43Q316.43-0.45 316.43-1.33L316.43-1.33L316.43-2.71Q315.51-1.99 314.51-1.40Q313.52-0.80 312.37-0.37Q311.23 0.06 309.93 0.29Q308.63 0.53 307.11 0.53L307.11 0.53Q305.08 0.53 303.15-0.07Q301.23-0.66 299.75-1.89Q298.26-3.13 297.36-5Q296.46-6.88 296.46-9.43L296.46-9.43Q296.46-11.89 297.35-13.71Q298.24-15.53 299.79-16.73Q301.33-17.93 303.40-18.53Q305.47-19.12 307.83-19.12L307.83-19.12Q309.02-19.12 310.18-18.94Q311.33-18.75 312.42-18.42Q313.52-18.09 314.53-17.65Q315.55-17.21 316.43-16.72L316.43-16.72L316.43-18.59L323.26-18.59L323.26-16.41L318.87-16.41L318.87-1.41Q318.87 0.70 318.18 2.44Q317.50 4.18 316.06 5.44Q314.63 6.70 312.39 7.39Q310.16 8.09 307.07 8.09ZM307.68-1.56L307.68-1.56Q309.12-1.56 310.40-1.90Q311.68-2.25 312.78-2.79Q313.89-3.34 314.79-4.00Q315.70-4.67 316.43-5.31L316.43-5.31L316.43-14.24Q315.68-14.79 314.77-15.28Q313.85-15.78 312.76-16.17Q311.68-16.56 310.46-16.80Q309.24-17.03 307.87-17.03L307.87-17.03Q305.86-17.03 304.20-16.52Q302.54-16.02 301.36-15.05Q300.18-14.08 299.52-12.67Q298.87-11.25 298.87-9.43L298.87-9.43Q298.87-5.64 301.11-3.60Q303.36-1.56 307.68-1.56Z M368.83-18.81L366.62-18.81L366.62-24.55L348.48-24.55L348.48-14.92L363.52-14.92L363.52-12.64L348.48-12.64L348.48-2.21L354.06-2.21L354.06 0L340.43 0L340.43-2.21L346.04-2.21L346.04-24.65L340.43-24.65L340.43-26.84L368.83-26.84L368.83-18.81Z M395.21-9.28L395.21-9.28Q395.21-6.72 394.30-4.87Q393.38-3.03 391.78-1.83Q390.18-0.63 388.00-0.05Q385.82 0.53 383.30 0.53L383.30 0.53Q380.76 0.53 378.57-0.05Q376.39-0.63 374.78-1.83Q373.16-3.03 372.25-4.87Q371.33-6.72 371.33-9.28L371.33-9.28Q371.33-11.82 372.26-13.68Q373.18-15.55 374.80-16.75Q376.43-17.95 378.61-18.54Q380.80-19.12 383.30-19.12L383.30-19.12Q385.82-19.12 388.00-18.54Q390.18-17.97 391.78-16.77Q393.38-15.57 394.30-13.70Q395.21-11.84 395.21-9.28ZM392.81-9.28L392.81-9.28Q392.81-13.05 390.42-15.04Q388.03-17.03 383.30-17.03L383.30-17.03Q378.55-17.03 376.14-15.04Q373.73-13.05 373.73-9.28L373.73-9.28Q373.73-5.51 376.14-3.54Q378.55-1.56 383.30-1.56L383.30-1.56Q388.03-1.56 390.42-3.54Q392.81-5.53 392.81-9.28Z M398.05-16.41L398.05-18.59L404.88-18.59L404.88-14.69Q405.68-15.63 406.60-16.44Q407.52-17.25 408.58-17.84Q409.65-18.44 410.87-18.78Q412.09-19.12 413.50-19.12L413.50-19.12Q414.20-19.12 414.80-19.01Q415.41-18.91 415.88-18.77Q416.35-18.63 416.66-18.50Q416.97-18.36 417.09-18.32L417.09-18.32L416.21-16.07Q415.72-16.33 414.95-16.60Q414.18-16.88 413.01-16.88L413.01-16.88Q411.52-16.88 410.28-16.42Q409.04-15.96 408.04-15.27Q407.03-14.59 406.25-13.76Q405.47-12.93 404.88-12.21L404.88-12.21L404.88-2.21L409.69-2.21L409.69 0L398.05 0L398.05-2.21L402.44-2.21L402.44-16.41L398.05-16.41Z M434.22-24.65L434.22-26.84L442.42-26.84L458.18-2.52L473.69-26.84L481.93-26.84L481.93-24.65L476.33-24.65L476.33-2.21L481.93-2.21L481.93 0L468.30 0L468.30-2.21L473.91-2.21L473.91-22.83L459.18 0L457.01 0L442.27-22.93L442.27-2.21L447.85-2.21L447.85 0L434.22 0L434.22-2.21L439.82-2.21L439.82-24.65L434.22-24.65Z M509.34-9.28L509.34-9.28Q509.34-6.72 508.42-4.87Q507.50-3.03 505.90-1.83Q504.30-0.63 502.12-0.05Q499.94 0.53 497.42 0.53L497.42 0.53Q494.88 0.53 492.70-0.05Q490.51-0.63 488.90-1.83Q487.29-3.03 486.37-4.87Q485.45-6.72 485.45-9.28L485.45-9.28Q485.45-11.82 486.38-13.68Q487.30-15.55 488.93-16.75Q490.55-17.95 492.73-18.54Q494.92-19.12 497.42-19.12L497.42-19.12Q499.94-19.12 502.12-18.54Q504.30-17.97 505.90-16.77Q507.50-15.57 508.42-13.70Q509.34-11.84 509.34-9.28ZM506.93-9.28L506.93-9.28Q506.93-13.05 504.54-15.04Q502.15-17.03 497.42-17.03L497.42-17.03Q492.68-17.03 490.26-15.04Q487.85-13.05 487.85-9.28L487.85-9.28Q487.85-5.51 490.26-3.54Q492.68-1.56 497.42-1.56L497.42-1.56Q502.15-1.56 504.54-3.54Q506.93-5.53 506.93-9.28Z M512.17-16.41L512.17-18.59L519.00-18.59L519.00-14.69Q519.80-15.63 520.72-16.44Q521.64-17.25 522.71-17.84Q523.77-18.44 524.99-18.78Q526.21-19.12 527.62-19.12L527.62-19.12Q528.32-19.12 528.93-19.01Q529.53-18.91 530-18.77Q530.47-18.63 530.78-18.50Q531.09-18.36 531.21-18.32L531.21-18.32L530.33-16.07Q529.84-16.33 529.07-16.60Q528.30-16.88 527.13-16.88L527.13-16.88Q525.64-16.88 524.40-16.42Q523.16-15.96 522.16-15.27Q521.15-14.59 520.37-13.76Q519.59-12.93 519.00-12.21L519.00-12.21L519.00-2.21L523.81-2.21L523.81 0L512.17 0L512.17-2.21L516.56-2.21L516.56-16.41L512.17-16.41Z M535.33-10.23L552.50-10.23Q552.40-11.56 551.89-12.75Q551.39-13.95 550.37-14.85Q549.36-15.76 547.81-16.30Q546.27-16.84 544.10-16.84L544.10-16.84Q542.07-16.84 540.51-16.30Q538.95-15.76 537.85-14.85Q536.76-13.95 536.13-12.75Q535.51-11.56 535.33-10.23L535.33-10.23ZM544.06 0.49L544.06 0.49Q541.50 0.49 539.42-0.19Q537.34-0.86 535.88-2.12Q534.41-3.38 533.61-5.18Q532.81-6.97 532.81-9.20L532.81-9.20Q532.81-11.37 533.65-13.17Q534.49-14.98 536.00-16.28Q537.50-17.58 539.57-18.29Q541.64-19.00 544.10-19.00L544.10-19.00Q546.66-19.00 548.69-18.28Q550.72-17.56 552.13-16.20Q553.54-14.84 554.28-12.91Q555.02-10.98 555.02-8.55L555.02-8.55L555.02-8.13L535.33-8.13Q535.47-6.64 536.10-5.45Q536.74-4.26 537.85-3.42Q538.96-2.58 540.52-2.13Q542.07-1.68 544.06-1.68L544.06-1.68Q545.98-1.68 547.39-1.99Q548.81-2.30 549.79-2.83Q550.78-3.36 551.40-4.02Q552.01-4.69 552.34-5.39L552.34-5.39L554.79-5.39Q553.63-2.42 550.87-0.97Q548.11 0.49 544.06 0.49Z"/></g>
</svg>
</g></svg></svg>